REM DIRINDEX 1\2\5,1\2\6,1\2\7,1\2\8,1\3\9,1\3\10,1\3\11,1\4\12,1\4\13,1\4\14,1\4\15,1\4\16
REM DIRNAME folder01,folder02,folder03,folder04,folder05,folder06,folder07,folder08,folder09,folder10,folder11,folder12,folder13,folder14,folder15,folder16
TITLE ""
FILE "1200_sec02_0446_0454.mp3" MP3
  TRACK 01 AUDIO
    TITLE "0:"
    INDEX 01 00:00:00
  TRACK 02 AUDIO
    TITLE "12:cjc034_05426"
    INDEX 01 00:00:17
  TRACK 03 AUDIO
    TITLE "0:"
    INDEX 01 00:01:28
  TRACK 04 AUDIO
    TITLE "13:cjc034_05427"
    INDEX 01 00:01:62
  TRACK 05 AUDIO
    TITLE "0:"
    INDEX 01 00:05:07
  TRACK 06 AUDIO
    TITLE "14:cjc034_05428"
    INDEX 01 00:05:40
  TRACK 07 AUDIO
    TITLE "0:"
    INDEX 01 00:06:49
  TRACK 08 AUDIO
    TITLE "15:cjc034_05429"
    INDEX 01 00:07:07
  TRACK 09 AUDIO
    TITLE "0:"
    INDEX 01 00:10:65
  TRACK 10 AUDIO
    TITLE "12:cjc034_05430"
    INDEX 01 00:12:24
  TRACK 11 AUDIO
    TITLE "0:"
    INDEX 01 00:13:37
  TRACK 12 AUDIO
    TITLE "13:cjc034_05431"
    INDEX 01 00:13:71
  TRACK 13 AUDIO
    TITLE "0:"
    INDEX 01 00:19:05
  TRACK 14 AUDIO
    TITLE "14:cjc034_05432"
    INDEX 01 00:19:38
  TRACK 15 AUDIO
    TITLE "0:"
    INDEX 01 00:20:49
  TRACK 16 AUDIO
    TITLE "15:cjc034_05433"
    INDEX 01 00:21:08
  TRACK 17 AUDIO
    TITLE "0:"
    INDEX 01 00:25:46
  TRACK 18 AUDIO
    TITLE "12:cjc034_05434"
    INDEX 01 00:27:06
  TRACK 19 AUDIO
    TITLE "0:"
    INDEX 01 00:27:73
  TRACK 20 AUDIO
    TITLE "13:cjc034_05435"
    INDEX 01 00:28:35
  TRACK 21 AUDIO
    TITLE "0:"
    INDEX 01 00:30:61
  TRACK 22 AUDIO
    TITLE "14:cjc034_05436"
    INDEX 01 00:31:16
  TRACK 23 AUDIO
    TITLE "0:"
    INDEX 01 00:32:13
  TRACK 24 AUDIO
    TITLE "15:cjc034_05437"
    INDEX 01 00:32:45
  TRACK 25 AUDIO
    TITLE "0:"
    INDEX 01 00:36:19
  TRACK 26 AUDIO
    TITLE "12:cjc034_05438"
    INDEX 01 00:37:50
  TRACK 27 AUDIO
    TITLE "0:"
    INDEX 01 00:38:49
  TRACK 28 AUDIO
    TITLE "13:cjc034_05439"
    INDEX 01 00:39:11
  TRACK 29 AUDIO
    TITLE "0:"
    INDEX 01 00:43:52
  TRACK 30 AUDIO
    TITLE "14:cjc034_05440"
    INDEX 01 00:44:12
  TRACK 31 AUDIO
    TITLE "0:"
    INDEX 01 00:45:14
  TRACK 32 AUDIO
    TITLE "15:cjc034_05441"
    INDEX 01 00:45:45
  TRACK 33 AUDIO
    TITLE "0:"
    INDEX 01 00:50:44
  TRACK 34 AUDIO
    TITLE "12:cjc034_05442"
    INDEX 01 00:52:02
  TRACK 35 AUDIO
    TITLE "0:"
    INDEX 01 00:53:19
  TRACK 36 AUDIO
    TITLE "13:cjc034_05443"
    INDEX 01 00:53:55
  TRACK 37 AUDIO
    TITLE "0:"
    INDEX 01 00:57:68
  TRACK 38 AUDIO
    TITLE "14:cjc034_05444"
    INDEX 01 00:58:28
  TRACK 39 AUDIO
    TITLE "0:"
    INDEX 01 00:59:43
  TRACK 40 AUDIO
    TITLE "15:cjc034_05445"
    INDEX 01 01:00:04
  TRACK 41 AUDIO
    TITLE "0:"
    INDEX 01 01:03:22
  TRACK 42 AUDIO
    TITLE "12:cjc034_05446"
    INDEX 01 01:04:52
  TRACK 43 AUDIO
    TITLE "0:"
    INDEX 01 01:05:58
  TRACK 44 AUDIO
    TITLE "13:cjc034_05447"
    INDEX 01 01:06:14
  TRACK 45 AUDIO
    TITLE "0:"
    INDEX 01 01:08:25
  TRACK 46 AUDIO
    TITLE "14:cjc034_05448"
    INDEX 01 01:08:56
  TRACK 47 AUDIO
    TITLE "0:"
    INDEX 01 01:09:61
  TRACK 48 AUDIO
    TITLE "15:cjc034_05449"
    INDEX 01 01:10:20
  TRACK 49 AUDIO
    TITLE "0:"
    INDEX 01 01:13:59
  TRACK 50 AUDIO
    TITLE "12:cjc034_05450"
    INDEX 01 01:15:17
  TRACK 51 AUDIO
    TITLE "0:"
    INDEX 01 01:16:44
  TRACK 52 AUDIO
    TITLE "13:cjc034_05451"
    INDEX 01 01:17:00
  TRACK 53 AUDIO
    TITLE "0:"
    INDEX 01 01:21:10
  TRACK 54 AUDIO
    TITLE "14:cjc034_05452"
    INDEX 01 01:21:41
  TRACK 55 AUDIO
    TITLE "0:"
    INDEX 01 01:22:70
  TRACK 56 AUDIO
    TITLE "15:cjc034_05453"
    INDEX 01 01:23:26
  TRACK 57 AUDIO
    TITLE "0:"
    INDEX 01 01:27:04
  TRACK 58 AUDIO
    TITLE "12:cjc034_05454"
    INDEX 01 01:28:35
  TRACK 59 AUDIO
    TITLE "0:"
    INDEX 01 01:29:52
  TRACK 60 AUDIO
    TITLE "13:cjc034_05455"
    INDEX 01 01:30:11
  TRACK 61 AUDIO
    TITLE "0:"
    INDEX 01 01:32:68
  TRACK 62 AUDIO
    TITLE "14:cjc034_05456"
    INDEX 01 01:33:25
  TRACK 63 AUDIO
    TITLE "0:"
    INDEX 01 01:34:44
  TRACK 64 AUDIO
    TITLE "15:cjc034_05457"
    INDEX 01 01:35:00
  TRACK 65 AUDIO
    TITLE "0:"
    INDEX 01 01:38:34
  TRACK 66 AUDIO
    TITLE "12:cjc034_05458"
    INDEX 01 01:39:66
  TRACK 67 AUDIO
    TITLE "0:"
    INDEX 01 01:41:14
  TRACK 68 AUDIO
    TITLE "13:cjc034_05459"
    INDEX 01 01:41:50
  TRACK 69 AUDIO
    TITLE "0:"
    INDEX 01 01:43:05
  TRACK 70 AUDIO
    TITLE "14:cjc034_05460"
    INDEX 01 01:43:37
  TRACK 71 AUDIO
    TITLE "0:"
    INDEX 01 01:44:58
  TRACK 72 AUDIO
    TITLE "15:cjc034_05461"
    INDEX 01 01:45:20
  TRACK 73 AUDIO
    TITLE "0:"
    INDEX 01 01:49:32
